<svg xmlns="http://www.w3.org/2000/svg" version="1.1" xmlns:xlink="http://www.w3.org/1999/xlink" xmlns:svgjs="http://svgjs.dev/svgjs" width="1000" height="1098" viewBox="0 0 1000 1098"><g transform="matrix(1,0,0,1,0.5751439578731947,0)"><svg viewBox="0 0 255 280" data-background-color="#ffffff" preserveAspectRatio="xMidYMid meet" height="1098" width="1000" xmlns="http://www.w3.org/2000/svg" xmlns:xlink="http://www.w3.org/1999/xlink"><g id="tight-bounds" transform="matrix(1,0,0,1,-0.1466617092576712,0)"><svg viewBox="0 0 255.29332341851534 280" height="280" width="255.29332341851534"><g><svg viewBox="0 0 278.2696 305.1998656160278" height="280" width="255.29332341851534"><g><svg viewBox="0 0 278.2696 305.1998656160278" height="305.1998656160278" width="278.2696"><g id="textblocktransform"><svg viewBox="0 0 278.2696 305.1998656160278" height="305.1998656160278" width="278.2696" id="textblock"><g><svg viewBox="0 0 278.2696 278.2696" height="278.2696" width="278.2696"><g transform="matrix(1,0,0,1,106.70527653756773,89.94321971048298)"><svg viewBox="0 0 64.85904692486457 98.38316057903407" height="98.38316057903407" width="64.85904692486457"><g><svg xmlns="http://www.w3.org/2000/svg" xmlns:xlink="http://www.w3.org/1999/xlink" version="1.1" x="0" y="0" viewBox="19.379079818725586 3.072000026702881 62.31291198730469 94.52098846435547" enable-background="new 0 0 100 100" xml:space="preserve" height="98.38316057903407" width="64.85904692486457" class="icon-o-0" data-fill-palette-color="accent" id="o-0"><path d="M73.854 7.813V3.072l-42.788 8.963c-12.435-1.057-11.678 9.918-11.678 9.918v44.843c0.139 11.492 11.678 10.379 11.678 10.379l3.992 0.904v19.506l5.559-6.844 5.468 6.852v-17.01l27.769 6.303V81.32h7.838V7.813H73.854zM44.777 93.578l-4.175-5.49-4.245 5.49V78.377l8.42 1.91V93.578zM72.461 84.754l-40.608-9.223c0 0-10.833 1.508-10.833-10.025V23.123c0 0-0.729-11.253 10.833-9.414l40.608-8.503V84.754zM80.355 79.982h-6.502v-2.066h3.516V11.247h-3.516V9.161h6.502V79.982z" fill="#50a060" data-fill-palette-color="accent"></path><path d="M30.46 17.136c0-0.297-0.241-0.538-0.538-0.538-0.297 0-0.538 0.241-0.538 0.538h-0.002v56.116h0.002c0 0.297 0.241 0.539 0.538 0.539 0.297 0 0.538-0.242 0.538-0.539h0.001V17.136H30.46z" fill="#50a060" data-fill-palette-color="accent"></path></svg></g></svg></g><g><path d="M13.393 193.928V193.928C12.427 191.309 12.087 188.744 12.372 186.231 12.657 183.718 13.625 181.453 15.275 179.435 16.925 177.418 19.275 175.847 22.324 174.724V174.724C24.649 173.867 26.83 173.491 28.867 173.598 30.897 173.707 32.748 174.196 34.422 175.067 36.089 175.94 37.538 177.123 38.768 178.617 39.995 180.12 40.961 181.828 41.666 183.742V183.742C42.234 185.282 42.582 186.765 42.711 188.19 42.833 189.618 42.795 191.013 42.596 192.376V192.376L37.67 194.372 37.521 193.97 40.009 190.747C40.428 190.289 40.787 189.82 41.085 189.342 41.383 188.864 41.552 188.341 41.591 187.775V187.775C41.628 187.3 41.622 186.85 41.57 186.422 41.519 185.995 41.384 185.485 41.166 184.893V184.893C40.589 183.328 39.647 182.057 38.338 181.081 37.029 180.104 35.267 179.589 33.051 179.534 30.834 179.473 28.051 180.06 24.702 181.294V181.294C21.379 182.518 18.889 183.851 17.231 185.29 15.567 186.732 14.555 188.234 14.196 189.797 13.835 191.354 13.943 192.914 14.52 194.479V194.479C14.839 195.346 15.152 196.013 15.459 196.481 15.775 196.952 16.148 197.399 16.58 197.82V197.82C16.98 198.254 17.44 198.53 17.959 198.651 18.481 198.763 19.026 198.838 19.593 198.877V198.877L24.213 199.193 24.362 199.595 18.527 201.607C17.513 200.699 16.559 199.609 15.666 198.338 14.768 197.075 14.011 195.605 13.393 193.928ZM30.032 224.053V224.053C29.092 222.773 28.294 221.355 27.638 219.8 26.981 218.255 26.582 216.853 26.442 215.596V215.596L31.303 212.297 31.557 212.643 30.091 215.377C29.682 216.18 29.362 216.951 29.13 217.69 28.904 218.425 28.891 219.222 29.093 220.08V220.08C29.201 220.71 29.374 221.271 29.612 221.764 29.846 222.251 30.158 222.76 30.548 223.29V223.29C31.59 224.71 32.795 225.548 34.163 225.804 35.534 226.067 36.823 225.755 38.028 224.87V224.87C39.163 224.036 39.845 223.107 40.073 222.082 40.301 221.057 40.268 219.709 39.972 218.038V218.038L39.548 216.148C38.965 213.501 38.833 211.194 39.153 209.228 39.473 207.261 40.586 205.578 42.493 204.178V204.178C43.859 203.175 45.299 202.661 46.814 202.636 48.339 202.613 49.831 203.038 51.289 203.913 52.753 204.783 54.107 206.065 55.35 207.757V207.757C56.25 208.983 56.943 210.268 57.426 211.611 57.915 212.951 58.18 214.232 58.221 215.455V215.455L53.89 218.314 53.631 217.961 55.197 214.621C55.715 213.631 55.997 212.814 56.043 212.17 56.093 211.531 55.999 210.903 55.761 210.287V210.287C55.632 209.92 55.493 209.597 55.346 209.318 55.189 209.037 54.965 208.699 54.674 208.303V208.303C53.805 207.119 52.733 206.373 51.459 206.064 50.176 205.753 48.953 206.025 47.791 206.878V206.878C46.607 207.747 45.892 208.755 45.645 209.901 45.399 211.047 45.439 212.427 45.767 214.041V214.041L46.249 216.161C46.906 219.099 47.044 221.459 46.662 223.24 46.275 225.025 45.211 226.557 43.471 227.835V227.835C41.43 229.334 39.198 229.786 36.774 229.192 34.356 228.593 32.109 226.88 30.032 224.053ZM56.667 250.742L48.202 243.556 48.479 243.229 49.366 243.524C49.936 243.747 50.404 243.786 50.769 243.643 51.134 243.5 51.504 243.208 51.878 242.767V242.767L66.462 225.586C66.836 225.146 67.069 224.738 67.161 224.362 67.253 223.987 67.133 223.528 66.801 222.985V222.985L66.366 222.157 66.643 221.831 75.108 229.016 74.831 229.343 73.944 229.048C73.374 228.826 72.907 228.786 72.541 228.929 72.176 229.072 71.806 229.364 71.432 229.805V229.805L56.848 246.986C56.474 247.427 56.25 247.834 56.177 248.208 56.108 248.576 56.219 249.036 56.509 249.588V249.588L56.944 250.415ZM86.988 267.848L74.773 261.878 74.961 261.493 76.739 261.874C77.916 262.16 78.762 261.775 79.278 260.718V260.718L90.085 238.608 86.789 236.998C85.828 236.528 85.019 236.443 84.362 236.743 83.702 237.049 82.925 237.527 82.03 238.177V238.177L79.307 240.208 78.922 240.02 82.2 233.789 104.588 244.731 101.65 251.128 101.265 250.94 101.194 247.544C101.181 246.45 101.093 245.549 100.929 244.84 100.762 244.137 100.198 243.551 99.237 243.081V243.081L95.941 241.471 85.135 263.581C84.619 264.637 84.835 265.542 85.784 266.294V266.294L87.176 267.463ZM136.573 278.172L130.016 278.27 130.009 277.841 131.428 277.381C131.944 277.234 132.312 276.95 132.532 276.528 132.758 276.106 132.867 275.606 132.858 275.028V275.028L132.55 254.268C132.221 253.581 131.961 253.067 131.77 252.724 131.579 252.381 131.365 252.089 131.129 251.847 130.899 251.604 130.579 251.3 130.168 250.934V250.934L129.42 250.207 129.413 249.779 137.057 249.665 151.679 269.006 151.438 252.731C151.429 252.16 151.328 251.643 151.136 251.181 150.943 250.725 150.556 250.428 149.976 250.291V250.291L148.545 249.923 148.539 249.495 154.718 249.403 154.724 249.832 153.564 250.238C153.048 250.418 152.734 250.725 152.621 251.159 152.514 251.592 152.465 252.098 152.474 252.676V252.676L152.85 278.06 150.438 278.096 133.608 255.678 133.895 275.012C133.903 275.59 133.997 276.081 134.176 276.483 134.354 276.879 134.717 277.16 135.265 277.324V277.324L136.567 277.744ZM184.665 270.906V270.906C183.009 271.486 181.309 271.747 179.564 271.689 177.816 271.625 176.134 271.215 174.517 270.457 172.894 269.702 171.418 268.565 170.09 267.044 168.768 265.522 167.695 263.581 166.869 261.223V261.223C166.049 258.884 165.681 256.707 165.764 254.693 165.856 252.682 166.306 250.87 167.113 249.256 167.923 247.649 168.989 246.269 170.31 245.116 171.628 243.972 173.101 243.115 174.732 242.543V242.543C176.388 241.964 178.086 241.696 179.827 241.741 181.567 241.787 183.251 242.19 184.876 242.951 186.493 243.709 187.968 244.854 189.3 246.387 190.633 247.92 191.713 249.868 192.541 252.232V252.232C193.349 254.54 193.71 256.706 193.623 258.729 193.538 260.758 193.101 262.576 192.312 264.183 191.514 265.786 190.455 267.164 189.134 268.317 187.81 269.463 186.321 270.326 184.665 270.906ZM184.365 270.05V270.05C185.858 269.527 186.928 268.702 187.575 267.574 188.215 266.449 188.407 264.843 188.148 262.758 187.887 260.667 187.163 257.925 185.975 254.532V254.532C184.775 251.108 183.625 248.497 182.524 246.7 181.423 244.903 180.271 243.765 179.068 243.285 177.861 242.813 176.511 242.839 175.019 243.362V243.362C173.551 243.876 172.496 244.692 171.853 245.812 171.212 246.937 171.022 248.546 171.283 250.637 171.537 252.731 172.264 255.49 173.463 258.914V258.914C174.651 262.307 175.799 264.9 176.906 266.695 178.005 268.486 179.156 269.621 180.359 270.101 181.562 270.581 182.898 270.564 184.365 270.05ZM226.642 246.071L215.813 254.29 215.554 253.949 216.694 252.533C217.48 251.612 217.517 250.682 216.806 249.746V249.746L201.927 230.143 199.005 232.361C198.153 233.008 197.713 233.692 197.685 234.414 197.661 235.141 197.739 236.05 197.916 237.142V237.142L198.504 240.488 198.162 240.747 194.074 235.015 213.923 219.949 218.312 225.452 217.971 225.711 214.906 224.245C213.924 223.765 213.08 223.438 212.373 223.265 211.67 223.098 210.893 223.338 210.041 223.985V223.985L207.119 226.202 221.998 245.804C222.709 246.741 223.614 246.955 224.713 246.446V246.446L226.383 245.729ZM254.832 213.551L242.138 230.965 241.792 230.712 242.065 229.678C242.188 229.159 242.173 228.729 242.02 228.387 241.861 228.041 241.548 227.697 241.08 227.357V227.357L222.869 214.082C222.402 213.741 221.987 213.538 221.624 213.471 221.267 213.408 220.845 213.536 220.358 213.855V213.855L219.456 214.432 219.11 214.179 231.293 197.466 236.818 201.172 236.566 201.519 232.195 200.627C231.624 200.531 231.123 200.508 230.693 200.556 230.272 200.603 229.892 200.86 229.551 201.327V201.327L224.978 207.602 235.062 214.952 237.78 211.223C238.121 210.756 238.256 210.312 238.185 209.89 238.123 209.467 237.95 209.011 237.664 208.523V208.523L236.773 206.801 237.026 206.455 243.308 211.034 243.056 211.38 241.079 211.013C240.508 210.917 240.017 210.896 239.607 210.951 239.192 211.002 238.814 211.261 238.473 211.728V211.728L235.755 215.457 246.604 223.366 251.742 216.318C252.078 215.856 252.22 215.408 252.166 214.974 252.107 214.537 251.916 214.077 251.593 213.595V213.595L249.36 209.771 249.612 209.425ZM266.261 190.682V190.682C265.706 192.17 264.958 193.615 264.017 195.015 263.084 196.412 262.13 197.514 261.156 198.32V198.32L255.732 196.063 255.882 195.661 258.973 195.389C259.868 195.29 260.688 195.135 261.434 194.924 262.173 194.711 262.846 194.284 263.453 193.646V193.646C263.921 193.21 264.295 192.758 264.577 192.288 264.856 191.825 265.11 191.285 265.34 190.669V190.669C265.956 189.019 265.996 187.552 265.461 186.267 264.929 184.976 263.962 184.069 262.561 183.547V183.547C261.242 183.054 260.09 182.994 259.108 183.365 258.126 183.736 257.017 184.503 255.781 185.666V185.666L254.433 187.057C252.539 188.995 250.682 190.37 248.862 191.18 247.042 191.991 245.024 191.982 242.807 191.155V191.155C241.22 190.563 240 189.64 239.149 188.386 238.294 187.124 237.832 185.643 237.764 183.944 237.689 182.242 238.019 180.408 238.753 178.44V178.44C239.285 177.015 239.98 175.731 240.839 174.591 241.691 173.448 242.617 172.524 243.617 171.819V171.819L248.383 173.873 248.23 174.284 244.578 174.805C243.466 174.915 242.628 175.127 242.064 175.441 241.502 175.75 241.029 176.172 240.644 176.71V176.71C240.408 177.019 240.213 177.311 240.061 177.588 239.912 177.873 239.751 178.245 239.58 178.706V178.706C239.066 180.082 239.029 181.388 239.469 182.623 239.913 183.866 240.811 184.74 242.162 185.244V185.244C243.537 185.758 244.772 185.803 245.866 185.381 246.959 184.96 248.091 184.169 249.261 183.01V183.01L250.771 181.445C252.868 179.285 254.766 177.876 256.465 177.219 258.17 176.564 260.034 176.614 262.058 177.369V177.369C264.43 178.254 266.031 179.873 266.863 182.226 267.688 184.576 267.487 187.395 266.261 190.682Z" fill="#0074d9" data-fill-palette-color="primary"></path><path d="M33.888 99.621V99.621C32.955 102.174 31.589 104.292 29.792 105.977 28 107.664 25.857 108.737 23.361 109.197 20.865 109.657 18.131 109.344 15.161 108.258V108.258C12.895 107.429 11.042 106.334 9.602 104.972 8.161 103.611 7.094 102.078 6.401 100.374 5.712 98.679 5.383 96.889 5.415 95.004 5.446 93.119 5.803 91.244 6.485 89.378V89.378C7.035 87.874 7.712 86.554 8.516 85.419 9.321 84.284 10.227 83.275 11.237 82.392V82.392L16.153 84.009 16.009 84.402 12.123 85.22C11.528 85.3 10.971 85.422 10.451 85.585 9.922 85.753 9.469 86.036 9.089 86.435V86.435C8.758 86.76 8.476 87.096 8.244 87.442 8.017 87.791 7.798 88.255 7.585 88.836V88.836C7.026 90.365 6.924 91.902 7.279 93.446 7.64 94.994 8.626 96.486 10.237 97.924 11.839 99.366 14.272 100.684 17.536 101.878V101.878C20.769 103.06 23.458 103.64 25.603 103.617 27.741 103.593 29.437 103.116 30.689 102.187 31.942 101.259 32.847 100.03 33.406 98.501V98.501C33.714 97.658 33.9 96.966 33.964 96.423 34.028 95.88 34.033 95.316 33.979 94.73V94.73C33.949 94.153 33.779 93.66 33.469 93.249 33.153 92.836 32.797 92.437 32.4 92.052V92.052L29.171 88.897 29.315 88.504 34.915 90.689C35.091 92.006 35.114 93.415 34.982 94.917 34.851 96.418 34.486 97.986 33.888 99.621ZM47.606 74.772V74.772C46.696 76.016 45.618 77.17 44.371 78.234 43.124 79.298 41.935 80.08 40.805 80.578V80.578L36.324 77.031 36.571 76.693 39.54 77.259C40.405 77.405 41.214 77.474 41.969 77.466 42.715 77.46 43.456 77.24 44.192 76.807V76.807C44.751 76.516 45.223 76.19 45.609 75.831 45.996 75.471 46.379 75.031 46.76 74.511V74.511C47.767 73.132 48.19 71.766 48.027 70.412 47.866 69.068 47.198 67.966 46.023 67.107V67.107C44.912 66.296 43.851 65.935 42.838 66.026 41.819 66.113 40.576 66.541 39.108 67.312V67.312L37.484 68.249C35.202 69.568 33.099 70.368 31.174 70.649 29.253 70.923 27.367 70.384 25.516 69.031V69.031C24.18 68.055 23.28 66.866 22.815 65.464 22.341 64.063 22.294 62.556 22.676 60.942 23.057 59.328 23.852 57.695 25.06 56.042V56.042C25.934 54.846 26.922 53.827 28.023 52.986 29.128 52.139 30.242 51.521 31.366 51.133V51.133L35.29 54.31 35.043 54.648 31.475 54.175C30.404 53.985 29.563 53.964 28.954 54.111 28.348 54.252 27.793 54.522 27.289 54.919V54.919C26.982 55.147 26.722 55.373 26.51 55.596 26.293 55.824 26.046 56.129 25.767 56.51V56.51C24.924 57.663 24.545 58.88 24.63 60.16 24.719 61.435 25.329 62.486 26.461 63.314V63.314C27.614 64.157 28.758 64.528 29.894 64.428 31.033 64.322 32.304 63.878 33.709 63.094V63.094L35.52 62.035C38.058 60.556 40.21 59.734 41.977 59.569 43.75 59.408 45.483 59.947 47.178 61.186V61.186C49.169 62.641 50.242 64.578 50.4 66.998 50.557 69.418 49.626 72.009 47.606 74.771ZM69.722 50.619L61.497 57.611 61.226 57.292 61.644 56.492C61.945 55.983 62.056 55.54 61.978 55.161 61.896 54.787 61.673 54.387 61.312 53.961V53.961L47.102 37.247C46.741 36.822 46.387 36.534 46.041 36.383 45.699 36.238 45.239 36.28 44.659 36.512V36.512L43.801 36.796 43.53 36.477 51.755 29.485 52.026 29.804 51.607 30.604C51.311 31.118 51.2 31.561 51.273 31.935 51.356 32.309 51.578 32.709 51.94 33.135V33.135L66.149 49.849C66.511 50.274 66.865 50.553 67.213 50.685 67.561 50.807 68.021 50.774 68.593 50.584V50.584L69.45 50.3ZM95.835 36.181L83.94 41.988 83.757 41.612 85.123 40.479C86.039 39.751 86.245 38.87 85.741 37.837V37.837L75.233 16.313 72.027 17.879C71.095 18.334 70.549 18.903 70.388 19.588 70.221 20.276 70.119 21.158 70.082 22.233V22.233L70.015 25.549 69.638 25.733 66.818 19.479 88.611 8.84 91.771 14.928 91.395 15.112 88.739 13.125C87.893 12.481 87.15 12.012 86.511 11.718 85.866 11.426 85.077 11.508 84.146 11.963V11.963L80.939 13.528 91.446 35.052C91.951 36.085 92.775 36.463 93.919 36.186V36.186L95.652 35.805ZM136.787 27.854L130.409 27.738 130.416 27.319 131.809 26.926C132.317 26.796 132.684 26.527 132.911 26.119 133.144 25.718 133.266 25.238 133.276 24.68V24.68L133.645 4.469C133.352 3.793 133.116 3.283 132.936 2.941 132.762 2.606 132.565 2.316 132.343 2.073 132.122 1.83 131.819 1.522 131.433 1.149V1.149L130.739 0.419 130.746 0 138.181 0.136 151.785 19.426 152.074 3.59C152.085 3.025 152.001 2.519 151.823 2.07 151.652 1.615 151.289 1.313 150.733 1.163V1.163L149.345 0.759 149.352 0.34 155.362 0.45 155.354 0.869 154.221 1.227C153.713 1.39 153.399 1.68 153.278 2.097 153.157 2.513 153.092 3.004 153.082 3.569V3.569L152.63 28.274 150.278 28.231 134.627 5.873 134.282 24.698C134.272 25.256 134.35 25.733 134.515 26.128 134.674 26.523 135.018 26.812 135.546 26.994V26.994L136.794 27.436ZM177.659 35.519V35.519C176.048 34.95 174.601 34.111 173.315 33.001 172.03 31.892 171.001 30.556 170.228 28.993 169.462 27.433 169.037 25.672 168.954 23.712 168.874 21.746 169.239 19.616 170.049 17.323V17.323C170.852 15.048 171.902 13.175 173.198 11.701 174.493 10.228 175.936 9.127 177.525 8.399 179.123 7.667 180.772 7.266 182.474 7.198 184.175 7.13 185.819 7.376 187.404 7.936V7.936C189.02 8.507 190.473 9.341 191.763 10.438 193.053 11.535 194.084 12.864 194.857 14.427 195.621 15.994 196.043 17.764 196.121 19.736 196.199 21.709 195.832 23.845 195.02 26.145V26.145C194.227 28.388 193.181 30.252 191.881 31.738 190.581 33.224 189.141 34.336 187.562 35.075 185.979 35.805 184.337 36.205 182.636 36.273 180.934 36.341 179.275 36.09 177.659 35.519ZM177.954 34.683V34.683C179.408 35.196 180.723 35.224 181.9 34.766 183.07 34.305 184.193 33.201 185.269 31.453 186.349 29.713 187.472 27.192 188.638 23.89V23.89C189.816 20.557 190.531 17.874 190.784 15.842 191.045 13.806 190.865 12.242 190.243 11.148 189.616 10.053 188.575 9.248 187.121 8.734V8.734C185.699 8.232 184.4 8.21 183.223 8.668 182.053 9.128 180.93 10.233 179.854 11.981 178.774 13.721 177.645 16.257 176.468 19.59V19.59C175.301 22.892 174.592 25.559 174.339 27.591 174.078 29.627 174.258 31.192 174.879 32.285 175.507 33.381 176.532 34.18 177.954 34.683ZM214.298 55.843L203.772 47.817 204.026 47.484 205.651 48.197C206.713 48.689 207.592 48.478 208.289 47.564V47.564L222.812 28.517 219.975 26.354C219.15 25.725 218.396 25.493 217.712 25.656 217.022 25.815 216.188 26.12 215.21 26.569V26.569L212.217 27.996 211.884 27.743 216.208 22.416 235.493 37.121 231.469 42.677 231.136 42.423 231.72 39.158C231.916 38.112 232.002 37.238 231.979 36.535 231.95 35.827 231.523 35.159 230.699 34.531V34.531L227.861 32.367 213.338 51.414C212.641 52.328 212.673 53.234 213.434 54.132V54.132L214.552 55.51ZM238.238 84.05L225.922 67.076 226.261 66.83 227.135 67.39C227.573 67.655 227.976 67.769 228.344 67.732 228.713 67.686 229.123 67.499 229.575 67.172V67.172L247.331 54.287C247.783 53.959 248.095 53.638 248.269 53.323 248.438 53.012 248.446 52.583 248.296 52.036V52.036L248.034 51.031 248.373 50.785 260.192 67.072 255.101 71.087 254.849 70.74 256.992 66.956C257.252 66.455 257.424 66.002 257.508 65.597 257.591 65.191 257.469 64.763 257.141 64.311V64.311L252.698 58.188 242.872 65.318 245.512 68.956C245.84 69.408 246.208 69.666 246.617 69.731 247.029 69.802 247.504 69.777 248.041 69.658V69.658L249.902 69.354 250.148 69.693 244.025 74.136 243.779 73.798 244.71 72.076C244.97 71.575 245.137 71.125 245.209 70.728 245.287 70.326 245.163 69.9 244.835 69.448V69.448L242.195 65.81 231.61 73.49 236.592 80.355C236.924 80.812 237.3 81.077 237.722 81.149 238.138 81.224 238.62 81.187 239.167 81.036V81.036L243.375 80.113 243.621 80.452ZM245.744 102.861V102.861C245.209 101.415 244.843 99.879 244.645 98.252 244.446 96.625 244.451 95.202 244.66 93.984V93.984L250.092 92.208 250.237 92.601 248.126 94.764C247.526 95.404 247.022 96.04 246.611 96.674 246.205 97.299 245.979 98.038 245.933 98.891V98.891C245.867 99.518 245.878 100.091 245.964 100.612 246.051 101.133 246.206 101.695 246.429 102.3V102.3C247.022 103.901 247.928 105.008 249.146 105.62 250.356 106.228 251.643 106.279 253.008 105.774V105.774C254.298 105.297 255.185 104.611 255.669 103.716 256.159 102.82 256.488 101.546 256.657 99.897V99.897L256.772 98.026C256.932 95.395 257.427 93.199 258.257 91.44 259.089 89.687 260.58 88.412 262.73 87.617V87.617C264.282 87.042 265.77 86.948 267.196 87.335 268.625 87.713 269.907 88.507 271.042 89.716 272.177 90.926 273.1 92.491 273.81 94.41V94.41C274.324 95.8 274.628 97.186 274.722 98.568 274.818 99.957 274.717 101.227 274.421 102.378V102.378L269.604 103.895 269.459 103.502 271.824 100.789C272.574 100.001 273.056 99.312 273.27 98.723 273.486 98.14 273.568 97.529 273.516 96.889V96.889C273.495 96.507 273.45 96.166 273.381 95.865 273.31 95.559 273.193 95.184 273.029 94.742V94.742C272.534 93.402 271.729 92.414 270.615 91.777 269.503 91.147 268.289 91.075 266.975 91.562V91.562C265.635 92.058 264.693 92.806 264.15 93.808 263.609 94.816 263.277 96.122 263.155 97.726V97.726L263.037 99.821C262.868 102.753 262.365 105.001 261.526 106.565 260.682 108.132 259.275 109.279 257.306 110.008V110.008C254.994 110.864 252.786 110.689 250.682 109.483 248.578 108.278 246.932 106.071 245.744 102.861Z" fill="#0074d9" data-fill-palette-color="primary"></path><path d="M3.434 142.79C3.434 136.778 8.307 131.904 14.319 131.904 20.331 131.904 25.205 136.778 25.205 142.79 25.205 148.802 20.331 153.675 14.319 153.675 8.307 153.675 3.434 148.802 3.434 142.79ZM253.065 142.79C253.065 136.778 257.938 131.904 263.95 131.904 269.962 131.904 274.836 136.778 274.836 142.79 274.836 148.802 269.962 153.675 263.95 153.675 257.938 153.675 253.065 148.802 253.065 142.79Z" fill="#0074d9" data-fill-palette-color="primary"></path></g></svg></g><g transform="matrix(1,0,0,1,27.82696,296.42026000000004)"><svg viewBox="0 0 222.61568000000003 8.779605616027764" height="8.779605616027764" width="222.61568000000003"><g transform="matrix(1,0,0,1,0,0)"><svg width="222.61568000000003" viewBox="4.050000190734863 -37 950.75 37.5" height="8.779605616027764" data-palette-color="#001f3f"><path d="M17.55 0.5L17.55 0.5Q13.35 0.5 10.33-1 7.3-2.5 5.68-5.58 4.05-8.65 4.05-13.5L4.05-13.5 4.05-33.8Q4.05-34.35 4.35-34.68 4.65-35 5.2-35L5.2-35 7.75-35Q8.3-35 8.63-34.68 8.95-34.35 8.95-33.8L8.95-33.8 8.95-13.4Q8.95-8.5 11.25-6.15 13.55-3.8 17.55-3.8L17.55-3.8Q21.5-3.8 23.83-6.15 26.15-8.5 26.15-13.4L26.15-13.4 26.15-33.8Q26.15-34.35 26.48-34.68 26.8-35 27.3-35L27.3-35 29.9-35Q30.4-35 30.73-34.68 31.05-34.35 31.05-33.8L31.05-33.8 31.05-13.5Q31.05-8.65 29.43-5.58 27.8-2.5 24.8-1 21.8 0.5 17.55 0.5ZM42.4 0L39.9 0Q39.4 0 39.07-0.33 38.75-0.65 38.75-1.15L38.75-1.15 38.75-24.85Q38.75-25.35 39.07-25.68 39.4-26 39.9-26L39.9-26 42.25-26Q42.75-26 43.07-25.68 43.4-25.35 43.4-24.85L43.4-24.85 43.4-22.65Q44.7-24.35 46.67-25.43 48.65-26.5 51.75-26.5L51.75-26.5Q55-26.5 57.27-25.08 59.55-23.65 60.72-21.13 61.9-18.6 61.9-15.25L61.9-15.25 61.9-1.15Q61.9-0.65 61.57-0.33 61.25 0 60.75 0L60.75 0 58.25 0Q57.75 0 57.42-0.33 57.1-0.65 57.1-1.15L57.1-1.15 57.1-15Q57.1-18.5 55.4-20.48 53.7-22.45 50.4-22.45L50.4-22.45Q47.3-22.45 45.42-20.48 43.55-18.5 43.55-15L43.55-15 43.55-1.15Q43.55-0.65 43.22-0.33 42.9 0 42.4 0L42.4 0ZM72.6 0L70.25 0Q69.75 0 69.42-0.33 69.1-0.65 69.1-1.15L69.1-1.15 69.1-34.35Q69.1-34.85 69.42-35.18 69.75-35.5 70.25-35.5L70.25-35.5 72.6-35.5Q73.15-35.5 73.45-35.18 73.75-34.85 73.75-34.35L73.75-34.35 73.75-1.15Q73.75-0.65 73.45-0.33 73.15 0 72.6 0L72.6 0ZM91.59 0.5L91.59 0.5Q86.39 0.5 83.34-2.68 80.29-5.85 79.99-11.35L79.99-11.35Q79.94-12 79.94-13.03 79.94-14.05 79.99-14.7L79.99-14.7Q80.19-18.25 81.64-20.93 83.09-23.6 85.62-25.05 88.14-26.5 91.54-26.5L91.54-26.5Q95.34-26.5 97.92-24.9 100.49-23.3 101.84-20.35 103.19-17.4 103.19-13.45L103.19-13.45 103.19-12.6Q103.19-12.05 102.87-11.75 102.54-11.45 102.04-11.45L102.04-11.45 84.74-11.45Q84.74-11.4 84.74-11.25 84.74-11.1 84.74-11L84.74-11Q84.84-8.95 85.64-7.18 86.44-5.4 87.97-4.3 89.49-3.2 91.54-3.2L91.54-3.2Q93.34-3.2 94.54-3.75 95.74-4.3 96.49-4.98 97.24-5.65 97.49-6.05L97.49-6.05Q97.94-6.65 98.19-6.78 98.44-6.9 98.99-6.9L98.99-6.9 101.44-6.9Q101.89-6.9 102.22-6.63 102.54-6.35 102.49-5.85L102.49-5.85Q102.44-5.1 101.69-4.03 100.94-2.95 99.57-1.9 98.19-0.85 96.17-0.18 94.14 0.5 91.59 0.5ZM84.74-15.05L84.74-14.9 98.44-14.9 98.44-15.05Q98.44-17.3 97.62-19.05 96.79-20.8 95.24-21.83 93.69-22.85 91.54-22.85L91.54-22.85Q89.39-22.85 87.87-21.83 86.34-20.8 85.54-19.05 84.74-17.3 84.74-15.05L84.74-15.05ZM116.44 0.5L116.44 0.5Q113.94 0.5 111.89-0.5 109.84-1.5 108.59-3.2 107.34-4.9 107.34-7.05L107.34-7.05Q107.34-10.5 110.14-12.55 112.94-14.6 117.44-15.25L117.44-15.25 124.89-16.3 124.89-17.75Q124.89-20.15 123.52-21.5 122.14-22.85 119.04-22.85L119.04-22.85Q116.84-22.85 115.44-21.95 114.04-21.05 113.49-19.65L113.49-19.65Q113.19-18.9 112.44-18.9L112.44-18.9 110.19-18.9Q109.64-18.9 109.37-19.23 109.09-19.55 109.09-20L109.09-20Q109.09-20.75 109.67-21.85 110.24-22.95 111.44-24 112.64-25.05 114.52-25.78 116.39-26.5 119.09-26.5L119.09-26.5Q122.09-26.5 124.14-25.73 126.19-24.95 127.37-23.65 128.54-22.35 129.07-20.7 129.59-19.05 129.59-17.35L129.59-17.35 129.59-1.15Q129.59-0.65 129.27-0.33 128.94 0 128.44 0L128.44 0 126.14 0Q125.59 0 125.29-0.33 124.99-0.65 124.99-1.15L124.99-1.15 124.99-3.3Q124.34-2.4 123.24-1.53 122.14-0.65 120.49-0.08 118.84 0.5 116.44 0.5ZM117.49-3.25L117.49-3.25Q119.54-3.25 121.24-4.13 122.94-5 123.92-6.85 124.89-8.7 124.89-11.5L124.89-11.5 124.89-12.9 119.09-12.05Q115.54-11.55 113.74-10.38 111.94-9.2 111.94-7.4L111.94-7.4Q111.94-6 112.77-5.08 113.59-4.15 114.87-3.7 116.14-3.25 117.49-3.25ZM145.79 0.5L145.79 0.5Q142.99 0.5 140.99-0.2 138.99-0.9 137.74-1.9 136.49-2.9 135.86-3.9 135.24-4.9 135.19-5.5L135.19-5.5Q135.14-6.05 135.54-6.35 135.94-6.65 136.34-6.65L136.34-6.65 138.59-6.65Q138.84-6.65 139.01-6.58 139.19-6.5 139.49-6.15L139.49-6.15Q140.14-5.45 140.94-4.75 141.74-4.05 142.91-3.6 144.09-3.15 145.84-3.15L145.84-3.15Q148.39-3.15 150.04-4.13 151.69-5.1 151.69-7L151.69-7Q151.69-8.25 151.01-9 150.34-9.75 148.61-10.35 146.89-10.95 143.89-11.6L143.89-11.6Q140.89-12.3 139.14-13.33 137.39-14.35 136.64-15.78 135.89-17.2 135.89-19L135.89-19Q135.89-20.85 136.99-22.58 138.09-24.3 140.21-25.4 142.34-26.5 145.54-26.5L145.54-26.5Q148.14-26.5 149.99-25.85 151.84-25.2 153.04-24.23 154.24-23.25 154.84-22.3 155.44-21.35 155.49-20.7L155.49-20.7Q155.54-20.2 155.19-19.88 154.84-19.55 154.39-19.55L154.39-19.55 152.29-19.55Q151.94-19.55 151.71-19.7 151.49-19.85 151.29-20.05L151.29-20.05Q150.79-20.7 150.11-21.35 149.44-22 148.36-22.43 147.29-22.85 145.54-22.85L145.54-22.85Q143.04-22.85 141.79-21.8 140.54-20.75 140.54-19.15L140.54-19.15Q140.54-18.2 141.09-17.45 141.64-16.7 143.19-16.1 144.74-15.5 147.79-14.8L147.79-14.8Q151.09-14.15 152.99-13.05 154.89-11.95 155.69-10.5 156.49-9.05 156.49-7.15L156.49-7.15Q156.49-5.05 155.29-3.3 154.09-1.55 151.69-0.53 149.29 0.5 145.79 0.5ZM165.99 0L163.49 0Q162.99 0 162.66-0.33 162.34-0.65 162.34-1.15L162.34-1.15 162.34-34.35Q162.34-34.85 162.66-35.18 162.99-35.5 163.49-35.5L163.49-35.5 165.99-35.5Q166.54-35.5 166.84-35.18 167.14-34.85 167.14-34.35L167.14-34.35 167.14-22.7Q168.49-24.4 170.44-25.45 172.39-26.5 175.39-26.5L175.39-26.5Q178.64-26.5 180.91-25.08 183.19-23.65 184.36-21.13 185.54-18.6 185.54-15.25L185.54-15.25 185.54-1.15Q185.54-0.65 185.24-0.33 184.94 0 184.39 0L184.39 0 181.89 0Q181.39 0 181.06-0.33 180.74-0.65 180.74-1.15L180.74-1.15 180.74-15Q180.74-18.5 179.04-20.48 177.34-22.45 174.04-22.45L174.04-22.45Q170.94-22.45 169.04-20.48 167.14-18.5 167.14-15L167.14-15 167.14-1.15Q167.14-0.65 166.84-0.33 166.54 0 165.99 0L165.99 0ZM218.73 0L216.13 0Q215.63 0 215.31-0.33 214.98-0.65 214.98-1.15L214.98-1.15 214.98-12.95 202.93-33.35Q202.88-33.5 202.83-33.65 202.78-33.8 202.78-34L202.78-34Q202.78-34.4 203.08-34.7 203.38-35 203.78-35L203.78-35 206.38-35Q206.83-35 207.18-34.77 207.53-34.55 207.68-34.15L207.68-34.15 217.43-17.95 227.18-34.15Q227.43-34.55 227.76-34.77 228.08-35 228.53-35L228.53-35 231.08-35Q231.53-35 231.83-34.7 232.13-34.4 232.13-34L232.13-34Q232.13-33.8 232.08-33.65 232.03-33.5 231.93-33.35L231.93-33.35 219.93-12.95 219.93-1.15Q219.93-0.65 219.61-0.33 219.28 0 218.73 0L218.73 0ZM247.98 0.5L247.98 0.5Q244.18 0.5 241.63-0.95 239.08-2.4 237.73-4.98 236.38-7.55 236.23-10.85L236.23-10.85Q236.18-11.7 236.18-13.03 236.18-14.35 236.23-15.15L236.23-15.15Q236.38-18.5 237.75-21.05 239.13-23.6 241.68-25.05 244.23-26.5 247.98-26.5L247.98-26.5Q251.73-26.5 254.28-25.05 256.83-23.6 258.2-21.05 259.58-18.5 259.73-15.15L259.73-15.15Q259.78-14.35 259.78-13.03 259.78-11.7 259.73-10.85L259.73-10.85Q259.58-7.55 258.23-4.98 256.88-2.4 254.33-0.95 251.78 0.5 247.98 0.5ZM247.98-3.35L247.98-3.35Q251.08-3.35 252.93-5.33 254.78-7.3 254.93-11.1L254.93-11.1Q254.98-11.85 254.98-13 254.98-14.15 254.93-14.9L254.93-14.9Q254.78-18.7 252.93-20.68 251.08-22.65 247.98-22.65L247.98-22.65Q244.88-22.65 243-20.68 241.13-18.7 241.03-14.9L241.03-14.9Q240.98-14.15 240.98-13 240.98-11.85 241.03-11.1L241.03-11.1Q241.13-7.3 243-5.33 244.88-3.35 247.98-3.35ZM275.73 0.5L275.73 0.5Q272.53 0.5 270.3-0.93 268.08-2.35 266.93-4.9 265.78-7.45 265.78-10.75L265.78-10.75 265.78-24.85Q265.78-25.35 266.1-25.68 266.43-26 266.93-26L266.93-26 269.43-26Q269.93-26 270.25-25.68 270.58-25.35 270.58-24.85L270.58-24.85 270.58-11Q270.58-3.55 277.08-3.55L277.08-3.55Q280.18-3.55 282.05-5.53 283.93-7.5 283.93-11L283.93-11 283.93-24.85Q283.93-25.35 284.25-25.68 284.58-26 285.08-26L285.08-26 287.58-26Q288.08-26 288.38-25.68 288.68-25.35 288.68-24.85L288.68-24.85 288.68-1.15Q288.68-0.65 288.38-0.33 288.08 0 287.58 0L287.58 0 285.23 0Q284.73 0 284.4-0.33 284.08-0.65 284.08-1.15L284.08-1.15 284.08-3.35Q282.73-1.6 280.8-0.55 278.88 0.5 275.73 0.5ZM299.72 0L297.27 0Q296.77 0 296.45-0.33 296.12-0.65 296.12-1.15L296.12-1.15 296.12-24.8Q296.12-25.3 296.45-25.65 296.77-26 297.27-26L297.27-26 299.57-26Q300.07-26 300.42-25.65 300.77-25.3 300.77-24.8L300.77-24.8 300.77-22.6Q301.77-24.3 303.52-25.15 305.27-26 307.77-26L307.77-26 309.72-26Q310.22-26 310.55-25.68 310.87-25.35 310.87-24.85L310.87-24.85 310.87-22.8Q310.87-22.3 310.55-22 310.22-21.7 309.72-21.7L309.72-21.7 306.72-21.7Q304.02-21.7 302.47-20.13 300.92-18.55 300.92-15.85L300.92-15.85 300.92-1.15Q300.92-0.65 300.57-0.33 300.22 0 299.72 0L299.72 0ZM331.82 0L329.17 0Q328.62 0 328.32-0.33 328.02-0.65 328.02-1.15L328.02-1.15 328.02-33.8Q328.02-34.35 328.32-34.68 328.62-35 329.17-35L329.17-35 341.87-35Q345.57-35 348.29-33.8 351.02-32.6 352.52-30.23 354.02-27.85 354.02-24.3L354.02-24.3Q354.02-20.75 352.52-18.4 351.02-16.05 348.29-14.85 345.57-13.65 341.87-13.65L341.87-13.65 333.02-13.65 333.02-1.15Q333.02-0.65 332.69-0.33 332.37 0 331.82 0L331.82 0ZM332.97-30.8L332.97-17.85 341.62-17.85Q345.32-17.85 347.17-19.5 349.02-21.15 349.02-24.3L349.02-24.3Q349.02-27.4 347.22-29.1 345.42-30.8 341.62-30.8L341.62-30.8 332.97-30.8ZM370.12 0.5L370.12 0.5Q366.32 0.5 363.77-0.95 361.22-2.4 359.87-4.98 358.52-7.55 358.37-10.85L358.37-10.85Q358.32-11.7 358.32-13.03 358.32-14.35 358.37-15.15L358.37-15.15Q358.52-18.5 359.89-21.05 361.27-23.6 363.82-25.05 366.37-26.5 370.12-26.5L370.12-26.5Q373.87-26.5 376.42-25.05 378.97-23.6 380.34-21.05 381.72-18.5 381.87-15.15L381.87-15.15Q381.92-14.35 381.92-13.03 381.92-11.7 381.87-10.85L381.87-10.85Q381.72-7.55 380.37-4.98 379.02-2.4 376.47-0.95 373.92 0.5 370.12 0.5ZM370.12-3.35L370.12-3.35Q373.22-3.35 375.07-5.33 376.92-7.3 377.07-11.1L377.07-11.1Q377.12-11.85 377.12-13 377.12-14.15 377.07-14.9L377.07-14.9Q376.92-18.7 375.07-20.68 373.22-22.65 370.12-22.65L370.12-22.65Q367.02-22.65 365.14-20.68 363.27-18.7 363.17-14.9L363.17-14.9Q363.12-14.15 363.12-13 363.12-11.85 363.17-11.1L363.17-11.1Q363.27-7.3 365.14-5.33 367.02-3.35 370.12-3.35ZM401.76 0L398.31 0Q395.51 0 393.76-1.07 392.01-2.15 391.21-4.13 390.41-6.1 390.41-8.8L390.41-8.8 390.41-22 386.51-22Q386.01-22 385.69-22.33 385.36-22.65 385.36-23.15L385.36-23.15 385.36-24.85Q385.36-25.35 385.69-25.68 386.01-26 386.51-26L386.51-26 390.41-26 390.41-34.35Q390.41-34.85 390.74-35.18 391.06-35.5 391.56-35.5L391.56-35.5 393.91-35.5Q394.41-35.5 394.74-35.18 395.06-34.85 395.06-34.35L395.06-34.35 395.06-26 401.26-26Q401.81-26 402.11-25.68 402.41-25.35 402.41-24.85L402.41-24.85 402.41-23.15Q402.41-22.65 402.11-22.33 401.81-22 401.26-22L401.26-22 395.06-22 395.06-9.15Q395.06-6.8 395.86-5.45 396.66-4.1 398.71-4.1L398.71-4.1 401.76-4.1Q402.26-4.1 402.59-3.78 402.91-3.45 402.91-2.95L402.91-2.95 402.91-1.15Q402.91-0.65 402.59-0.33 402.26 0 401.76 0L401.76 0ZM418.11 0.5L418.11 0.5Q412.91 0.5 409.86-2.68 406.81-5.85 406.51-11.35L406.51-11.35Q406.46-12 406.46-13.03 406.46-14.05 406.51-14.7L406.51-14.7Q406.71-18.25 408.16-20.93 409.61-23.6 412.14-25.05 414.66-26.5 418.06-26.5L418.06-26.5Q421.86-26.5 424.44-24.9 427.01-23.3 428.36-20.35 429.71-17.4 429.71-13.45L429.71-13.45 429.71-12.6Q429.71-12.05 429.39-11.75 429.06-11.45 428.56-11.45L428.56-11.45 411.26-11.45Q411.26-11.4 411.26-11.25 411.26-11.1 411.26-11L411.26-11Q411.36-8.95 412.16-7.18 412.96-5.4 414.49-4.3 416.01-3.2 418.06-3.2L418.06-3.2Q419.86-3.2 421.06-3.75 422.26-4.3 423.01-4.98 423.76-5.65 424.01-6.05L424.01-6.05Q424.46-6.65 424.71-6.78 424.96-6.9 425.51-6.9L425.51-6.9 427.96-6.9Q428.41-6.9 428.74-6.63 429.06-6.35 429.01-5.85L429.01-5.85Q428.96-5.1 428.21-4.03 427.46-2.95 426.09-1.9 424.71-0.85 422.69-0.18 420.66 0.5 418.11 0.5ZM411.26-15.05L411.26-14.9 424.96-14.9 424.96-15.05Q424.96-17.3 424.14-19.05 423.31-20.8 421.76-21.83 420.21-22.85 418.06-22.85L418.06-22.85Q415.91-22.85 414.39-21.83 412.86-20.8 412.06-19.05 411.26-17.3 411.26-15.05L411.26-15.05ZM439.36 0L436.86 0Q436.36 0 436.03-0.33 435.71-0.65 435.71-1.15L435.71-1.15 435.71-24.85Q435.71-25.35 436.03-25.68 436.36-26 436.86-26L436.86-26 439.21-26Q439.71-26 440.03-25.68 440.36-25.35 440.36-24.85L440.36-24.85 440.36-22.65Q441.66-24.35 443.63-25.43 445.61-26.5 448.71-26.5L448.71-26.5Q451.96-26.5 454.23-25.08 456.51-23.65 457.68-21.13 458.86-18.6 458.86-15.25L458.86-15.25 458.86-1.15Q458.86-0.65 458.53-0.33 458.21 0 457.71 0L457.71 0 455.21 0Q454.71 0 454.38-0.33 454.06-0.65 454.06-1.15L454.06-1.15 454.06-15Q454.06-18.5 452.36-20.48 450.66-22.45 447.36-22.45L447.36-22.45Q444.26-22.45 442.38-20.48 440.51-18.5 440.51-15L440.51-15 440.51-1.15Q440.51-0.65 440.18-0.33 439.86 0 439.36 0L439.36 0ZM479.61 0L476.16 0Q473.36 0 471.61-1.07 469.86-2.15 469.06-4.13 468.26-6.1 468.26-8.8L468.26-8.8 468.26-22 464.36-22Q463.86-22 463.53-22.33 463.21-22.65 463.21-23.15L463.21-23.15 463.21-24.85Q463.21-25.35 463.53-25.68 463.86-26 464.36-26L464.36-26 468.26-26 468.26-34.35Q468.26-34.85 468.58-35.18 468.91-35.5 469.41-35.5L469.41-35.5 471.76-35.5Q472.26-35.5 472.58-35.18 472.91-34.85 472.91-34.35L472.91-34.35 472.91-26 479.11-26Q479.66-26 479.96-25.68 480.26-25.35 480.26-24.85L480.26-24.85 480.26-23.15Q480.26-22.65 479.96-22.33 479.66-22 479.11-22L479.11-22 472.91-22 472.91-9.15Q472.91-6.8 473.71-5.45 474.51-4.1 476.56-4.1L476.56-4.1 479.61-4.1Q480.11-4.1 480.43-3.78 480.76-3.45 480.76-2.95L480.76-2.95 480.76-1.15Q480.76-0.65 480.43-0.33 480.11 0 479.61 0L479.61 0ZM489.1 0L486.7 0Q486.2 0 485.88-0.33 485.55-0.65 485.55-1.15L485.55-1.15 485.55-24.85Q485.55-25.35 485.88-25.68 486.2-26 486.7-26L486.7-26 489.1-26Q489.6-26 489.93-25.68 490.25-25.35 490.25-24.85L490.25-24.85 490.25-1.15Q490.25-0.65 489.93-0.33 489.6 0 489.1 0L489.1 0ZM489.45-30.85L486.3-30.85Q485.8-30.85 485.48-31.18 485.15-31.5 485.15-32L485.15-32 485.15-34.7Q485.15-35.2 485.48-35.55 485.8-35.9 486.3-35.9L486.3-35.9 489.45-35.9Q489.95-35.9 490.3-35.55 490.65-35.2 490.65-34.7L490.65-34.7 490.65-32Q490.65-31.5 490.3-31.18 489.95-30.85 489.45-30.85L489.45-30.85ZM504.9 0.5L504.9 0.5Q502.4 0.5 500.35-0.5 498.3-1.5 497.05-3.2 495.8-4.9 495.8-7.05L495.8-7.05Q495.8-10.5 498.6-12.55 501.4-14.6 505.9-15.25L505.9-15.25 513.35-16.3 513.35-17.75Q513.35-20.15 511.98-21.5 510.6-22.85 507.5-22.85L507.5-22.85Q505.3-22.85 503.9-21.95 502.5-21.05 501.95-19.65L501.95-19.65Q501.65-18.9 500.9-18.9L500.9-18.9 498.65-18.9Q498.1-18.9 497.83-19.23 497.55-19.55 497.55-20L497.55-20Q497.55-20.75 498.13-21.85 498.7-22.95 499.9-24 501.1-25.05 502.98-25.78 504.85-26.5 507.55-26.5L507.55-26.5Q510.55-26.5 512.6-25.73 514.65-24.95 515.83-23.65 517-22.35 517.53-20.7 518.05-19.05 518.05-17.35L518.05-17.35 518.05-1.15Q518.05-0.65 517.73-0.33 517.4 0 516.9 0L516.9 0 514.6 0Q514.05 0 513.75-0.33 513.45-0.65 513.45-1.15L513.45-1.15 513.45-3.3Q512.8-2.4 511.7-1.53 510.6-0.65 508.95-0.08 507.3 0.5 504.9 0.5ZM505.95-3.25L505.95-3.25Q508-3.25 509.7-4.13 511.4-5 512.38-6.85 513.35-8.7 513.35-11.5L513.35-11.5 513.35-12.9 507.55-12.05Q504-11.55 502.2-10.38 500.4-9.2 500.4-7.4L500.4-7.4Q500.4-6 501.23-5.08 502.05-4.15 503.33-3.7 504.6-3.25 505.95-3.25ZM528.8 0L526.45 0Q525.95 0 525.62-0.33 525.3-0.65 525.3-1.15L525.3-1.15 525.3-34.35Q525.3-34.85 525.62-35.18 525.95-35.5 526.45-35.5L526.45-35.5 528.8-35.5Q529.35-35.5 529.65-35.18 529.95-34.85 529.95-34.35L529.95-34.35 529.95-1.15Q529.95-0.65 529.65-0.33 529.35 0 528.8 0L528.8 0ZM558.49 0L556.54 0Q555.89 0 555.54-0.33 555.19-0.65 554.94-1.25L554.94-1.25 547.84-24.45Q547.74-24.7 547.74-24.95L547.74-24.95Q547.74-25.4 548.07-25.7 548.39-26 548.79-26L548.79-26 550.99-26Q551.54-26 551.84-25.7 552.14-25.4 552.24-25.15L552.24-25.15 557.79-6.3 563.74-24.95Q563.84-25.3 564.17-25.65 564.49-26 565.14-26L565.14-26 566.84-26Q567.49-26 567.84-25.65 568.19-25.3 568.24-24.95L568.24-24.95 574.19-6.3 579.74-25.15Q579.79-25.4 580.09-25.7 580.39-26 580.94-26L580.94-26 583.19-26Q583.59-26 583.89-25.7 584.19-25.4 584.19-24.95L584.19-24.95Q584.19-24.7 584.09-24.45L584.09-24.45 577.04-1.25Q576.84-0.65 576.49-0.33 576.14 0 575.39 0L575.39 0 573.44 0Q572.79 0 572.37-0.33 571.94-0.65 571.79-1.25L571.79-1.25 565.99-19.15 560.19-1.25Q559.99-0.65 559.59-0.33 559.19 0 558.49 0L558.49 0ZM593.29 0L590.89 0Q590.39 0 590.06-0.33 589.74-0.65 589.74-1.15L589.74-1.15 589.74-24.85Q589.74-25.35 590.06-25.68 590.39-26 590.89-26L590.89-26 593.29-26Q593.79-26 594.12-25.68 594.44-25.35 594.44-24.85L594.44-24.85 594.44-1.15Q594.44-0.65 594.12-0.33 593.79 0 593.29 0L593.29 0ZM593.64-30.85L590.49-30.85Q589.99-30.85 589.66-31.18 589.34-31.5 589.34-32L589.34-32 589.34-34.7Q589.34-35.2 589.66-35.55 589.99-35.9 590.49-35.9L590.49-35.9 593.64-35.9Q594.14-35.9 594.49-35.55 594.84-35.2 594.84-34.7L594.84-34.7 594.84-32Q594.84-31.5 594.49-31.18 594.14-30.85 593.64-30.85L593.64-30.85ZM615.44 0L611.99 0Q609.19 0 607.44-1.07 605.69-2.15 604.89-4.13 604.09-6.1 604.09-8.8L604.09-8.8 604.09-22 600.19-22Q599.69-22 599.36-22.33 599.04-22.65 599.04-23.15L599.04-23.15 599.04-24.85Q599.04-25.35 599.36-25.68 599.69-26 600.19-26L600.19-26 604.09-26 604.09-34.35Q604.09-34.85 604.41-35.18 604.74-35.5 605.24-35.5L605.24-35.5 607.59-35.5Q608.09-35.5 608.41-35.18 608.74-34.85 608.74-34.35L608.74-34.35 608.74-26 614.94-26Q615.49-26 615.79-25.68 616.09-25.35 616.09-24.85L616.09-24.85 616.09-23.15Q616.09-22.65 615.79-22.33 615.49-22 614.94-22L614.94-22 608.74-22 608.74-9.15Q608.74-6.8 609.54-5.45 610.34-4.1 612.39-4.1L612.39-4.1 615.44-4.1Q615.94-4.1 616.26-3.78 616.59-3.45 616.59-2.95L616.59-2.95 616.59-1.15Q616.59-0.65 616.26-0.33 615.94 0 615.44 0L615.44 0ZM625.08 0L622.58 0Q622.08 0 621.76-0.33 621.43-0.65 621.43-1.15L621.43-1.15 621.43-34.35Q621.43-34.85 621.76-35.18 622.08-35.5 622.58-35.5L622.58-35.5 625.08-35.5Q625.63-35.5 625.93-35.18 626.23-34.85 626.23-34.35L626.23-34.35 626.23-22.7Q627.58-24.4 629.53-25.45 631.48-26.5 634.48-26.5L634.48-26.5Q637.73-26.5 640.01-25.08 642.28-23.65 643.46-21.13 644.63-18.6 644.63-15.25L644.63-15.25 644.63-1.15Q644.63-0.65 644.33-0.33 644.03 0 643.48 0L643.48 0 640.98 0Q640.48 0 640.16-0.33 639.83-0.65 639.83-1.15L639.83-1.15 639.83-15Q639.83-18.5 638.13-20.48 636.43-22.45 633.13-22.45L633.13-22.45Q630.03-22.45 628.13-20.48 626.23-18.5 626.23-15L626.23-15 626.23-1.15Q626.23-0.65 625.93-0.33 625.63 0 625.08 0L625.08 0ZM668.53 0L665.88 0Q665.33 0 665.03-0.33 664.73-0.65 664.73-1.15L664.73-1.15 664.73-33.8Q664.73-34.35 665.03-34.68 665.33-35 665.88-35L665.88-35 678.58-35Q682.28-35 685-33.8 687.73-32.6 689.23-30.23 690.73-27.85 690.73-24.3L690.73-24.3Q690.73-20.75 689.23-18.4 687.73-16.05 685-14.85 682.28-13.65 678.58-13.65L678.58-13.65 669.73-13.65 669.73-1.15Q669.73-0.65 669.4-0.33 669.08 0 668.53 0L668.53 0ZM669.68-30.8L669.68-17.85 678.33-17.85Q682.03-17.85 683.88-19.5 685.73-21.15 685.73-24.3L685.73-24.3Q685.73-27.4 683.93-29.1 682.13-30.8 678.33-30.8L678.33-30.8 669.68-30.8ZM706.58 0.5L706.58 0.5Q701.38 0.5 698.33-2.68 695.28-5.85 694.98-11.35L694.98-11.35Q694.93-12 694.93-13.03 694.93-14.05 694.98-14.7L694.98-14.7Q695.18-18.25 696.63-20.93 698.08-23.6 700.6-25.05 703.13-26.5 706.53-26.5L706.53-26.5Q710.33-26.5 712.9-24.9 715.48-23.3 716.83-20.35 718.18-17.4 718.18-13.45L718.18-13.45 718.18-12.6Q718.18-12.05 717.85-11.75 717.53-11.45 717.03-11.45L717.03-11.45 699.73-11.45Q699.73-11.4 699.73-11.25 699.73-11.1 699.73-11L699.73-11Q699.83-8.95 700.63-7.18 701.43-5.4 702.95-4.3 704.48-3.2 706.53-3.2L706.53-3.2Q708.33-3.2 709.53-3.75 710.73-4.3 711.48-4.98 712.23-5.65 712.48-6.05L712.48-6.05Q712.93-6.65 713.18-6.78 713.43-6.9 713.98-6.9L713.98-6.9 716.43-6.9Q716.88-6.9 717.2-6.63 717.53-6.35 717.48-5.85L717.48-5.85Q717.43-5.1 716.68-4.03 715.93-2.95 714.55-1.9 713.18-0.85 711.15-0.18 709.13 0.5 706.58 0.5ZM699.73-15.05L699.73-14.9 713.43-14.9 713.43-15.05Q713.43-17.3 712.6-19.05 711.78-20.8 710.23-21.83 708.68-22.85 706.53-22.85L706.53-22.85Q704.38-22.85 702.85-21.83 701.33-20.8 700.53-19.05 699.73-17.3 699.73-15.05L699.73-15.05ZM727.77 0L725.32 0Q724.82 0 724.5-0.33 724.17-0.65 724.17-1.15L724.17-1.15 724.17-24.8Q724.17-25.3 724.5-25.65 724.82-26 725.32-26L725.32-26 727.62-26Q728.12-26 728.47-25.65 728.82-25.3 728.82-24.8L728.82-24.8 728.82-22.6Q729.82-24.3 731.57-25.15 733.32-26 735.82-26L735.82-26 737.77-26Q738.27-26 738.6-25.68 738.92-25.35 738.92-24.85L738.92-24.85 738.92-22.8Q738.92-22.3 738.6-22 738.27-21.7 737.77-21.7L737.77-21.7 734.77-21.7Q732.07-21.7 730.52-20.13 728.97-18.55 728.97-15.85L728.97-15.85 728.97-1.15Q728.97-0.65 728.62-0.33 728.27 0 727.77 0L727.77 0ZM749.27 0L746.92 0Q746.42 0 746.1-0.33 745.77-0.65 745.77-1.15L745.77-1.15 745.77-22 741.52-22Q741.02-22 740.7-22.33 740.37-22.65 740.37-23.15L740.37-23.15 740.37-24.85Q740.37-25.35 740.7-25.68 741.02-26 741.52-26L741.52-26 745.77-26 745.77-28.5Q745.77-31.05 746.62-32.98 747.47-34.9 749.35-35.95 751.22-37 754.37-37L754.37-37 757.37-37Q757.87-37 758.2-36.68 758.52-36.35 758.52-35.85L758.52-35.85 758.52-34.15Q758.52-33.65 758.2-33.33 757.87-33 757.37-33L757.37-33 754.47-33Q752.12-33 751.27-31.78 750.42-30.55 750.42-28.25L750.42-28.25 750.42-26 756.87-26Q757.37-26 757.7-25.68 758.02-25.35 758.02-24.85L758.02-24.85 758.02-23.15Q758.02-22.65 757.7-22.33 757.37-22 756.87-22L756.87-22 750.42-22 750.42-1.15Q750.42-0.65 750.1-0.33 749.77 0 749.27 0L749.27 0ZM772.82 0.5L772.82 0.5Q767.62 0.5 764.57-2.68 761.52-5.85 761.22-11.35L761.22-11.35Q761.17-12 761.17-13.03 761.17-14.05 761.22-14.7L761.22-14.7Q761.42-18.25 762.87-20.93 764.32-23.6 766.84-25.05 769.37-26.5 772.77-26.5L772.77-26.5Q776.57-26.5 779.14-24.9 781.72-23.3 783.07-20.35 784.42-17.4 784.42-13.45L784.42-13.45 784.42-12.6Q784.42-12.05 784.09-11.75 783.77-11.45 783.27-11.45L783.27-11.45 765.97-11.45Q765.97-11.4 765.97-11.25 765.97-11.1 765.97-11L765.97-11Q766.07-8.95 766.87-7.18 767.67-5.4 769.19-4.3 770.72-3.2 772.77-3.2L772.77-3.2Q774.57-3.2 775.77-3.75 776.97-4.3 777.72-4.98 778.47-5.65 778.72-6.05L778.72-6.05Q779.17-6.65 779.42-6.78 779.67-6.9 780.22-6.9L780.22-6.9 782.67-6.9Q783.12-6.9 783.44-6.63 783.77-6.35 783.72-5.85L783.72-5.85Q783.67-5.1 782.92-4.03 782.17-2.95 780.79-1.9 779.42-0.85 777.39-0.18 775.37 0.5 772.82 0.5ZM765.97-15.05L765.97-14.9 779.67-14.9 779.67-15.05Q779.67-17.3 778.84-19.05 778.02-20.8 776.47-21.83 774.92-22.85 772.77-22.85L772.77-22.85Q770.62-22.85 769.09-21.83 767.57-20.8 766.77-19.05 765.97-17.3 765.97-15.05L765.97-15.05ZM800.92 0.5L800.92 0.5Q797.37 0.5 794.79-0.88 792.22-2.25 790.82-4.83 789.42-7.4 789.32-11L789.32-11Q789.27-11.75 789.27-13 789.27-14.25 789.32-15L789.32-15Q789.42-18.6 790.82-21.18 792.22-23.75 794.79-25.13 797.37-26.5 800.92-26.5L800.92-26.5Q803.82-26.5 805.89-25.7 807.97-24.9 809.32-23.65 810.67-22.4 811.34-20.95 812.02-19.5 812.07-18.2L812.07-18.2Q812.12-17.7 811.77-17.4 811.42-17.1 810.92-17.1L810.92-17.1 808.52-17.1Q808.02-17.1 807.77-17.32 807.52-17.55 807.27-18.1L807.27-18.1Q806.37-20.55 804.82-21.55 803.27-22.55 800.97-22.55L800.97-22.55Q797.97-22.55 796.09-20.7 794.22-18.85 794.07-14.75L794.07-14.75Q794.02-12.95 794.07-11.25L794.07-11.25Q794.22-7.1 796.09-5.28 797.97-3.45 800.97-3.45L800.97-3.45Q803.27-3.45 804.82-4.45 806.37-5.45 807.27-7.9L807.27-7.9Q807.52-8.45 807.77-8.7 808.02-8.95 808.52-8.95L808.52-8.95 810.92-8.95Q811.42-8.95 811.77-8.63 812.12-8.3 812.07-7.8L812.07-7.8Q812.02-6.75 811.62-5.65 811.22-4.55 810.34-3.43 809.47-2.3 808.17-1.43 806.87-0.55 805.07-0.03 803.27 0.5 800.92 0.5ZM831.61 0L828.16 0Q825.36 0 823.61-1.07 821.86-2.15 821.06-4.13 820.26-6.1 820.26-8.8L820.26-8.8 820.26-22 816.36-22Q815.86-22 815.54-22.33 815.21-22.65 815.21-23.15L815.21-23.15 815.21-24.85Q815.21-25.35 815.54-25.68 815.86-26 816.36-26L816.36-26 820.26-26 820.26-34.35Q820.26-34.85 820.59-35.18 820.91-35.5 821.41-35.5L821.41-35.5 823.76-35.5Q824.26-35.5 824.59-35.18 824.91-34.85 824.91-34.35L824.91-34.35 824.91-26 831.11-26Q831.66-26 831.96-25.68 832.26-25.35 832.26-24.85L832.26-24.85 832.26-23.15Q832.26-22.65 831.96-22.33 831.66-22 831.11-22L831.11-22 824.91-22 824.91-9.15Q824.91-6.8 825.71-5.45 826.51-4.1 828.56-4.1L828.56-4.1 831.61-4.1Q832.11-4.1 832.44-3.78 832.76-3.45 832.76-2.95L832.76-2.95 832.76-1.15Q832.76-0.65 832.44-0.33 832.11 0 831.61 0L831.61 0ZM854.01 0L851.61 0Q851.06 0 850.76-0.33 850.46-0.65 850.46-1.15L850.46-1.15 850.46-33.8Q850.46-34.35 850.76-34.68 851.06-35 851.61-35L851.61-35 853.91-35Q854.51-35 854.81-34.73 855.11-34.45 855.16-34.3L855.16-34.3 871.76-8.8 871.76-33.8Q871.76-34.35 872.06-34.68 872.36-35 872.91-35L872.91-35 875.31-35Q875.86-35 876.18-34.68 876.51-34.35 876.51-33.8L876.51-33.8 876.51-1.2Q876.51-0.7 876.18-0.35 875.86 0 875.36 0L875.36 0 872.96 0Q872.41 0 872.13-0.3 871.86-0.6 871.76-0.7L871.76-0.7 855.21-25.95 855.21-1.15Q855.21-0.65 854.88-0.33 854.56 0 854.01 0L854.01 0ZM895.21 0.5L895.21 0.5Q891.41 0.5 888.86-0.95 886.31-2.4 884.96-4.98 883.61-7.55 883.46-10.85L883.46-10.85Q883.41-11.7 883.41-13.03 883.41-14.35 883.46-15.15L883.46-15.15Q883.61-18.5 884.98-21.05 886.36-23.6 888.91-25.05 891.46-26.5 895.21-26.5L895.21-26.5Q898.96-26.5 901.51-25.05 904.06-23.6 905.43-21.05 906.81-18.5 906.96-15.15L906.96-15.15Q907.01-14.35 907.01-13.03 907.01-11.7 906.96-10.85L906.96-10.85Q906.81-7.55 905.46-4.98 904.11-2.4 901.56-0.95 899.01 0.5 895.21 0.5ZM895.21-3.35L895.21-3.35Q898.31-3.35 900.16-5.33 902.01-7.3 902.16-11.1L902.16-11.1Q902.21-11.85 902.21-13 902.21-14.15 902.16-14.9L902.16-14.9Q902.01-18.7 900.16-20.68 898.31-22.65 895.21-22.65L895.21-22.65Q892.11-22.65 890.23-20.68 888.36-18.7 888.26-14.9L888.26-14.9Q888.21-14.15 888.21-13 888.21-11.85 888.26-11.1L888.26-11.1Q888.36-7.3 890.23-5.33 892.11-3.35 895.21-3.35ZM926.85 0L923.4 0Q920.6 0 918.85-1.07 917.1-2.15 916.3-4.13 915.5-6.1 915.5-8.8L915.5-8.8 915.5-22 911.6-22Q911.1-22 910.78-22.33 910.45-22.65 910.45-23.15L910.45-23.15 910.45-24.85Q910.45-25.35 910.78-25.68 911.1-26 911.6-26L911.6-26 915.5-26 915.5-34.35Q915.5-34.85 915.83-35.18 916.15-35.5 916.65-35.5L916.65-35.5 919-35.5Q919.5-35.5 919.83-35.18 920.15-34.85 920.15-34.35L920.15-34.35 920.15-26 926.35-26Q926.9-26 927.2-25.68 927.5-25.35 927.5-24.85L927.5-24.85 927.5-23.15Q927.5-22.65 927.2-22.33 926.9-22 926.35-22L926.35-22 920.15-22 920.15-9.15Q920.15-6.8 920.95-5.45 921.75-4.1 923.8-4.1L923.8-4.1 926.85-4.1Q927.35-4.1 927.68-3.78 928-3.45 928-2.95L928-2.95 928-1.15Q928-0.65 927.68-0.33 927.35 0 926.85 0L926.85 0ZM943.2 0.5L943.2 0.5Q938 0.5 934.95-2.68 931.9-5.85 931.6-11.35L931.6-11.35Q931.55-12 931.55-13.03 931.55-14.05 931.6-14.7L931.6-14.7Q931.8-18.25 933.25-20.93 934.7-23.6 937.23-25.05 939.75-26.5 943.15-26.5L943.15-26.5Q946.95-26.5 949.53-24.9 952.1-23.3 953.45-20.35 954.8-17.4 954.8-13.45L954.8-13.45 954.8-12.6Q954.8-12.05 954.48-11.75 954.15-11.45 953.65-11.45L953.65-11.45 936.35-11.45Q936.35-11.4 936.35-11.25 936.35-11.1 936.35-11L936.35-11Q936.45-8.95 937.25-7.18 938.05-5.4 939.58-4.3 941.1-3.2 943.15-3.2L943.15-3.2Q944.95-3.2 946.15-3.75 947.35-4.3 948.1-4.98 948.85-5.65 949.1-6.05L949.1-6.05Q949.55-6.65 949.8-6.78 950.05-6.9 950.6-6.9L950.6-6.9 953.05-6.9Q953.5-6.9 953.83-6.63 954.15-6.35 954.1-5.85L954.1-5.85Q954.05-5.1 953.3-4.03 952.55-2.95 951.18-1.9 949.8-0.85 947.78-0.18 945.75 0.5 943.2 0.5ZM936.35-15.05L936.35-14.9 950.05-14.9 950.05-15.05Q950.05-17.3 949.23-19.05 948.4-20.8 946.85-21.83 945.3-22.85 943.15-22.85L943.15-22.85Q941-22.85 939.48-21.83 937.95-20.8 937.15-19.05 936.35-17.3 936.35-15.05L936.35-15.05Z" opacity="1" transform="matrix(1,0,0,1,0,0)" fill="#001f3f" class="undefined-text-1" data-fill-palette-color="secondary" id="text-1"></path></svg></g></svg></g></svg></g></svg></g></svg></g><defs></defs></svg><rect width="255.29332341851534" height="280" fill="none" stroke="none" visibility="hidden"></rect></g></svg></g></svg>